<?xml version="1.0" standalone="no"?>
<!DOCTYPE svg PUBLIC "-//W3C//DTD SVG 20010904//EN"
 "http://www.w3.org/TR/2001/REC-SVG-20010904/DTD/svg10.dtd">
<svg version="1.0" xmlns="http://www.w3.org/2000/svg"
 width="1497.000000pt" height="1497.000000pt" viewBox="0 0 1497.000000 1497.000000"
 preserveAspectRatio="xMidYMid meet">
<metadata>
Created by potrace 1.14, written by Peter Selinger 2001-2017
</metadata>
<g transform="translate(0.000000,1497.000000) scale(0.100000,-0.100000)"
fill="#000000" stroke="none">
<path d="M3302 11381 c-90 -55 -166 -102 -169 -104 -4 -5 223 -1565 232 -1594
3 -10 312 168 393 227 20 15 20 16 -84 515 -57 275 -103 504 -101 508 1 5 181
-139 399 -318 218 -180 399 -328 402 -329 11 -2 406 239 403 246 -3 10 -1294
948 -1304 948 -4 0 -81 -45 -171 -99z"/>
<path d="M10407 11009 c-356 -259 -647 -474 -647 -477 0 -4 90 -62 201 -129
l200 -121 400 330 c220 181 402 328 404 326 2 -1 -44 -230 -101 -507 -74 -358
-101 -508 -94 -515 16 -16 394 -244 398 -241 4 4 242 1599 239 1601 -17 14
-338 204 -344 204 -4 0 -299 -212 -656 -471z"/>
<path d="M5800 9780 c-537 -75 -1120 -362 -1730 -854 -378 -304 -858 -779
-1250 -1236 -347 -406 -888 -1123 -834 -1107 219 65 396 89 649 88 851 -1
1783 -433 2980 -1380 171 -135 360 -292 760 -632 545 -463 710 -590 869 -665
164 -78 204 -139 -721 1084 l-842 1113 102 82 c656 528 1066 1381 1103 2302
21 502 -205 931 -589 1120 -155 76 -335 107 -497 85z m-237 -812 c3 -7 107
-253 231 -546 124 -293 226 -535 226 -537 0 -3 -80 -5 -179 -5 l-179 0 -91
253 c-50 138 -108 301 -130 362 l-39 110 -14 -35 c-8 -19 -66 -182 -129 -362
l-114 -328 -181 0 -182 0 220 518 c121 284 226 532 233 550 l14 32 154 0 c115
0 156 -3 160 -12z"/>
<path d="M8760 9778 c-173 -24 -338 -109 -482 -247 -187 -179 -299 -394 -344
-661 -14 -84 -16 -141 -11 -304 26 -899 444 -1768 1107 -2300 47 -37 86 -71
87 -75 1 -3 -375 -505 -837 -1116 -548 -725 -834 -1111 -824 -1113 26 -6 111
28 192 77 151 90 317 223 842 671 974 831 1527 1228 2155 1545 570 288 1037
415 1525 415 240 0 458 -29 643 -86 52 -16 -505 722 -843 1116 -294 342 -721
780 -997 1023 -702 614 -1356 968 -1944 1052 -115 16 -173 17 -269 3z m950
-1490 c124 -292 228 -540 232 -550 7 -18 -1 -18 -174 -16 l-181 3 -127 353
c-70 194 -129 355 -131 357 -2 2 -61 -157 -130 -353 l-126 -357 -181 -3 c-174
-2 -181 -2 -174 16 4 11 108 258 232 550 l225 532 155 0 155 0 225 -532z"/>
<path d="M12520 8433 l1 -248 584 -614 584 -614 -143 -151 c-79 -83 -342 -360
-584 -616 l-441 -465 -1 -255 c0 -220 2 -252 14 -240 8 8 321 355 695 770
l681 755 -2 203 -3 203 -685 759 c-377 417 -688 759 -692 759 -5 1 -8 -110 -8
-246z"/>
<path d="M1633 7863 l-693 -765 0 -198 0 -197 671 -744 c369 -409 682 -755
695 -769 l24 -25 -1 255 0 255 -579 610 c-319 336 -580 613 -580 617 0 3 261
280 579 615 l580 608 0 253 c1 138 0 252 -1 252 -2 -1 -315 -345 -695 -767z"/>
<path d="M7205 6589 c-592 -76 -985 -471 -880 -884 39 -154 159 -313 317 -422
238 -164 568 -246 894 -222 788 58 1219 656 823 1144 -226 279 -710 440 -1154
384z"/>
</g>
</svg>
